HIERARCHY
ROOT Hips
{
	OFFSET 54.717499 -13.230914 85.614304
	CHANNELS 6 Xposition Yposition Zposition Xrotation Yrotation Zrotation
	JOINT spine
	{
		OFFSET 0.000000 -0.367607 6.392601
		CHANNELS 3 Xrotation Yrotation Zrotation
		JOINT spine1
		{
			OFFSET 0.000000 -0.000001 9.176109
			CHANNELS 3 Xrotation Yrotation Zrotation
			JOINT spine2
			{
				OFFSET 0.000000 -0.000002 8.792381
				CHANNELS 3 Xrotation Yrotation Zrotation
				JOINT Neck
				{
					OFFSET 0.000000 -1.076243 22.573708
					CHANNELS 3 Xrotation Yrotation Zrotation
					JOINT Head
					{
						OFFSET 0.000000 -0.000001 6.820114
						CHANNELS 3 Xrotation Yrotation Zrotation
						End Site
						{
							OFFSET 0.000000 5.444267 16.508499
						}
					}
				}
				JOINT RightShoulder
				{
					OFFSET -3.702209 0.515507 9.495087
					CHANNELS 3 Xrotation Yrotation Zrotation
					JOINT RightArm
					{
						OFFSET 0.000000 -0.000003 12.453697
						CHANNELS 3 Xrotation Yrotation Zrotation
						JOINT RightArmRoll
						{
							OFFSET 0.000000 -0.000001 6.286865
							CHANNELS 3 Xrotation Yrotation Zrotation
							JOINT RightForeArm
							{
								OFFSET 0.000000 -0.000003 18.311401
								CHANNELS 3 Xrotation Yrotation Zrotation
								JOINT RightForeArmRoll
								{
									OFFSET 0.000000 -0.000001 7.054825
									CHANNELS 3 Xrotation Yrotation Zrotation
									JOINT RightHand
									{
										OFFSET 0.000000 -0.000002 14.157501
										CHANNELS 3 Xrotation Yrotation Zrotation
										End Site
										{
											OFFSET 0.000000 0.000000 0.100006
										}
									}
								}
							}
						}
					}
				}
				JOINT LeftShoulder
				{
					OFFSET 3.702209 0.515507 9.495087
					CHANNELS 3 Xrotation Yrotation Zrotation
					JOINT LeftArm
					{
						OFFSET 0.000000 -0.000003 12.453697
						CHANNELS 3 Xrotation Yrotation Zrotation
						JOINT LeftArmRoll
						{
							OFFSET 0.000000 -0.000001 6.286865
							CHANNELS 3 Xrotation Yrotation Zrotation
							JOINT LeftForeArm
							{
								OFFSET 0.000000 -0.000003 18.311401
								CHANNELS 3 Xrotation Yrotation Zrotation
								JOINT LeftForeArmRoll
								{
									OFFSET 0.000000 -0.000001 7.054825
									CHANNELS 3 Xrotation Yrotation Zrotation
									JOINT LeftHand
									{
										OFFSET 0.000000 -0.000002 14.157501
										CHANNELS 3 Xrotation Yrotation Zrotation
										End Site
										{
											OFFSET 0.000000 0.000000 0.100006
										}
									}
								}
							}
						}
					}
				}
			}
		}
	}
	JOINT RightUpLeg
	{
		OFFSET -5.666149 0.871611 -1.039032
		CHANNELS 3 Xrotation Yrotation Zrotation
		JOINT RightUpLegRoll
		{
			OFFSET 0.000000 -0.000003 16.600502
			CHANNELS 3 Xrotation Yrotation Zrotation
			JOINT RightLeg
			{
				OFFSET 0.000000 0.000003 -20.557198
				CHANNELS 3 Xrotation Yrotation Zrotation
				JOINT RightLegRoll
				{
					OFFSET 0.000000 -0.000003 20.624397
					CHANNELS 3 Xrotation Yrotation Zrotation
					JOINT RightFoot
					{
						OFFSET 0.000000 -0.000003 17.166405
						CHANNELS 3 Xrotation Yrotation Zrotation
						JOINT RightToeBase
						{
							OFFSET 0.000000 -0.000003 14.350204
							CHANNELS 3 Xrotation Yrotation Zrotation
							End Site
							{
								OFFSET 0.006081 0.801060 6.949707
							}
						}
					}
				}
			}
		}
	}
	JOINT LeftUpLeg
	{
		OFFSET 5.666149 0.871611 -1.039032
		CHANNELS 3 Xrotation Yrotation Zrotation
		JOINT LeftUpLegRoll
		{
			OFFSET 0.000000 -0.000003 16.600601
			CHANNELS 3 Xrotation Yrotation Zrotation
			JOINT LeftLeg
			{
				OFFSET 0.000000 -0.000004 20.557098
				CHANNELS 3 Xrotation Yrotation Zrotation
				JOINT LeftLegRoll
				{
					OFFSET 0.000000 -0.000003 20.815094
					CHANNELS 3 Xrotation Yrotation Zrotation
					JOINT LeftFoot
					{
						OFFSET 0.000000 -0.000003 16.975708
						CHANNELS 3 Xrotation Yrotation Zrotation
						JOINT LeftToeBase
						{
							OFFSET 0.000000 -0.000003 14.350204
							CHANNELS 3 Xrotation Yrotation Zrotation
							End Site
							{
								OFFSET -0.027260 0.801060 6.949707
							}
						}
					}
				}
			}
		}
	}
}
MOTION
Frames: 13
Frame Time: 0.041667
54.080002 -14.008616 85.657799 -3.325722 2.338988 -3.922959 -1.018067 0.410461 -0.121722 1.967543 0.822415 -0.236312 3.612690 0.819589 -0.246238 11.354401 -8.508499 0.652115 10.019724 3.954913 0.916858 -21.876263 -24.382746 -26.879868 -118.941297 -133.849359 -66.692399 -0.000002 0.000022 -0.000004 112.324319 -4.752638 11.631303 0.000003 0.000000 -3.007827 -5.000230 -7.998689 0.000154 2.101276 55.225252 -2.999569 -34.580701 115.232258 30.805044 -0.000000 -0.000003 0.000004 4.390878 10.182859 0.147714 0.000000 -0.000001 2.999999 -5.000230 7.998765 -0.000148 1.195361 -177.356572 -0.290693 -179.999991 0.000005 -1.118999 174.208483 -2.335031 -0.534764 -0.000002 -0.000001 0.041988 68.509529 6.913468 2.099605 25.456957 -7.355615 0.000002 0.900223 172.488914 -1.175392 -0.000005 -0.000005 -1.038590 -8.973060 1.033310 0.717382 0.000003 0.000001 -0.059106 70.516109 -6.258036 -3.730261 25.457466 7.355619 -0.000833 
54.090801 -14.005618 85.673904 -3.330067 2.339288 -3.928744 -1.016908 0.411541 -0.121755 1.969865 0.824871 -0.236578 3.615012 0.822038 -0.246526 11.336974 -8.517686 0.653436 10.020640 3.972552 0.917414 -21.865368 -24.448186 -26.861051 -118.879811 -133.832120 -66.690889 -0.000002 0.000022 -0.000003 112.005882 -4.734570 11.523062 0.000003 -0.000000 -3.007831 -5.000229 -7.998695 0.000155 2.080076 55.214006 -2.975834 -34.587576 115.245522 30.830221 -0.000000 -0.000002 0.000003 4.429300 10.188924 0.144223 -0.000001 -0.000000 3.000001 -5.000228 7.998765 -0.000149 1.196516 -177.352569 -0.286479 -179.999991 0.000005 -1.118999 174.210067 -2.339020 -0.534105 -0.000002 -0.000001 0.041954 68.510281 6.913483 2.099860 25.456957 -7.355615 0.000001 0.904409 172.489911 -1.179794 -0.000004 -0.000005 -1.038620 -8.972640 1.039959 0.717318 0.000002 0.000001 -0.059021 70.514982 -6.258452 -3.729095 25.457466 7.355619 -0.000833 
54.096401 -14.014015 85.670898 -3.333903 2.339608 -3.934209 -1.015798 0.412656 -0.121760 1.972085 0.827431 -0.236831 3.617235 0.824590 -0.246802 11.317590 -8.529030 0.654425 10.023050 3.992979 0.917551 -21.855485 -24.514821 -26.843801 -118.819323 -133.816615 -66.685172 -0.000001 0.000022 -0.000003 111.682178 -4.717126 11.415845 0.000003 0.000002 -3.007832 -5.000230 -7.998691 0.000155 2.057918 55.202583 -2.950983 -34.596213 115.258117 30.857073 0.000000 -0.000001 0.000003 4.468363 10.194778 0.140724 -0.000000 -0.000000 3.000000 -5.000229 7.998763 -0.000149 1.197262 -177.347583 -0.282627 -179.999991 0.000005 -1.118999 174.211898 -2.342017 -0.534333 -0.000002 -0.000001 0.041919 68.511121 6.913468 2.100105 25.456957 -7.355615 0.000001 0.908056 172.490922 -1.184546 -0.000005 -0.000005 -1.038660 -8.971891 1.047093 0.717234 0.000003 0.000001 -0.058936 70.513445 -6.258957 -3.727770 25.457466 7.355619 -0.000832 
54.098499 -14.009314 85.673592 -3.337326 2.339929 -3.939389 -1.014738 0.413792 -0.121748 1.974228 0.830050 -0.237086 3.619368 0.827201 -0.247079 11.296826 -8.541701 0.655167 10.026561 4.015362 0.917361 -21.846208 -24.582237 -26.827378 -118.759928 -133.802518 -66.674715 -0.000002 0.000023 -0.000005 111.353913 -4.699920 11.311580 0.000004 0.000002 -3.007829 -5.000231 -7.998693 0.000153 2.034954 55.190961 -2.925184 -34.605464 115.270862 30.884213 0.000000 -0.000001 0.000004 4.507928 10.200318 0.137225 -0.000001 -0.000000 3.000001 -5.000231 7.998763 -0.000149 1.197676 -177.343581 -0.279098 -179.999991 0.000005 -1.118999 174.213879 -2.345995 -0.534654 -0.000002 -0.000001 0.041885 68.512166 6.913470 2.100240 25.456959 -7.355614 0.000001 0.911278 172.490936 -1.189657 -0.000005 -0.000005 -1.038700 -8.970851 1.054673 0.717133 0.000003 0.000001 -0.058853 70.511526 -6.259546 -3.726277 25.457466 7.355619 -0.000833 
54.102200 -14.004013 85.673096 -3.340430 2.340261 -3.944364 -1.013706 0.414931 -0.121729 1.976299 0.832684 -0.237353 3.621439 0.829824 -0.247366 11.274964 -8.554877 0.655708 10.030861 4.038827 0.916951 -21.837438 -24.650458 -26.811636 -118.702226 -133.789773 -66.659518 -0.000002 0.000023 -0.000003 111.021508 -4.683240 11.208356 0.000003 0.000001 -3.007820 -5.000227 -7.998694 0.000155 2.011367 55.179555 -2.898612 -34.616703 115.283006 30.913122 0.000000 -0.000002 0.000003 4.547851 10.205851 0.133713 0.000000 -0.000001 3.000000 -5.000231 7.998765 -0.000149 1.197833 -177.339578 -0.275786 -179.999991 0.000005 -1.118999 174.215996 -2.348993 -0.534870 -0.000002 -0.000001 0.041851 68.513225 6.913469 2.100473 25.456959 -7.355613 0.000001 0.914184 172.490950 -1.195086 -0.000005 -0.000005 -1.038740 -8.969575 1.062687 0.717020 0.000003 0.000001 -0.058771 70.509416 -6.260194 -3.724509 25.457464 7.355619 -0.000833 
54.106701 -14.006813 85.661301 -3.343313 2.340604 -3.949165 -1.012695 0.416055 -0.121712 1.978310 0.835287 -0.237644 3.623453 0.832419 -0.247679 11.252584 -8.567724 0.656125 10.035572 4.062532 0.916425 -21.828772 -24.719134 -26.796173 -118.646533 -133.778134 -66.639273 -0.000002 0.000023 -0.000005 110.685647 -4.666702 11.108144 0.000003 0.000002 -3.007819 -5.000228 -7.998692 0.000152 1.987324 55.168538 -2.871436 -34.629339 115.294385 30.943216 0.000001 -0.000002 0.000004 4.587975 10.211173 0.130215 0.000001 -0.000000 3.000000 -5.000232 7.998764 -0.000150 1.197787 -177.335589 -0.272612 -179.999991 0.000005 -1.118998 174.218195 -2.351993 -0.535084 -0.000002 -0.000001 0.041817 68.514386 6.913478 2.100503 25.456955 -7.355613 -0.000000 0.916883 172.490936 -1.200838 -0.000004 -0.000005 -1.038780 -8.968089 1.071088 0.716895 0.000003 0.000001 -0.058691 70.507011 -6.260929 -3.722671 25.457466 7.355619 -0.000833 
54.114498 -13.996514 85.665504 -3.346064 2.340927 -3.953874 -1.011716 0.417145 -0.121707 1.980281 0.837820 -0.237973 3.625425 0.834940 -0.248028 11.229970 -8.579430 0.656482 10.040172 4.085619 0.915893 -21.819963 -24.788150 -26.780422 -118.593094 -133.767370 -66.613571 -0.000001 0.000022 -0.000007 110.346672 -4.650985 11.009057 0.000004 0.000004 -3.007820 -5.000230 -7.998692 0.000153 1.962985 55.158033 -2.843826 -34.642552 115.305915 30.973443 0.000000 -0.000002 0.000004 4.628170 10.216491 0.126718 -0.000002 -0.000001 3.000000 -5.000233 7.998762 -0.000147 1.197640 -177.331587 -0.269494 -179.999991 0.000004 -1.118002 174.220436 -2.354978 -0.535292 -0.000002 -0.000001 0.041782 68.515656 6.913492 2.100526 25.456959 -7.355614 0.000001 0.919487 172.490950 -1.206900 -0.000004 -0.000005 -1.038830 -8.966444 1.079854 0.716763 0.000002 0.000001 -0.058611 70.504512 -6.261696 -3.720744 25.457466 7.355619 -0.000833 
54.116199 -13.993713 85.656403 -3.348779 2.341250 -3.958523 -1.010745 0.418185 -0.121722 1.982233 0.840234 -0.238354 3.627377 0.837343 -0.248426 11.207698 -8.589144 0.656864 10.044457 4.107241 0.915438 -21.810872 -24.857312 -26.764248 -118.542427 -133.757370 -66.582583 -0.000002 0.000022 -0.000004 110.005422 -4.635000 10.913923 0.000003 0.000002 -3.007809 -5.000230 -7.998693 0.000151 1.938529 55.148419 -2.815971 -34.657360 115.316734 31.004927 -0.000000 -0.000002 0.000003 4.668300 10.221802 0.123230 -0.000000 -0.000001 3.000000 -5.000230 7.998762 -0.000149 1.197464 -177.327584 -0.266351 -179.999991 0.000005 -1.118002 174.222689 -2.357978 -0.535503 -0.000002 -0.000001 0.041748 68.516913 6.913474 2.100643 25.456959 -7.355615 0.000001 0.922111 172.490950 -1.213243 -0.000005 -0.000004 -1.038880 -8.964662 1.088966 0.716628 0.000003 0.000001 -0.058534 70.501937 -6.262558 -3.718437 25.457466 7.355619 -0.000833 
54.125301 -13.999914 85.659195 -3.351550 2.341563 -3.963181 -1.009780 0.419159 -0.121769 1.984165 0.842487 -0.238796 3.629311 0.839585 -0.248886 11.186153 -8.596059 0.657344 10.048015 4.126538 0.915166 -21.801009 -24.926418 -26.747055 -118.494848 -133.747876 -66.545830 -0.000002 0.000023 -0.000005 109.662252 -4.619411 10.821908 0.000003 0.000001 -3.007810 -5.000231 -7.998697 0.000152 1.914131 55.139803 -2.788028 -34.674944 115.326023 31.038931 -0.000000 -0.000002 0.000004 4.708205 10.227210 0.119751 -0.000000 -0.000000 3.000000 -5.000231 7.998765 -0.000149 1.197314 -177.323582 -0.263100 -179.999991 0.000006 -1.118001 174.224848 -2.360963 -0.534716 -0.000002 -0.000001 0.041713 68.518183 6.913486 2.100667 25.456959 -7.355615 0.000002 0.924859 172.490963 -1.219862 -0.000005 -0.000004 -1.038930 -8.962791 1.098386 0.716493 0.000003 0.000001 -0.058458 70.499368 -6.263453 -3.716037 25.457467 7.355619 -0.000833 
54.136799 -13.993615 85.662903 -3.354481 2.341855 -3.967913 -1.008818 0.420047 -0.121859 1.986096 0.844536 -0.239314 3.631242 0.841621 -0.249419 11.165710 -8.599335 0.657980 10.050429 4.142659 0.915186 -21.790332 -24.995277 -26.728648 -118.450684 -133.738697 -66.503100 -0.000002 0.000023 -0.000005 109.317779 -4.604211 10.732027 0.000003 0.000001 -3.007810 -5.000230 -7.998691 0.000153 1.889957 55.132286 -2.760181 -34.692740 115.335353 31.072590 -0.000001 -0.000001 0.000003 4.747746 10.232624 0.116301 -0.000001 -0.000001 3.000000 -5.000231 7.998763 -0.000149 1.197292 -177.318582 -0.259637 -179.999991 0.000005 -1.118001 174.226924 -2.363962 -0.534933 -0.000002 -0.000001 0.041678 68.519440 6.913464 2.100784 25.456959 -7.355613 0.000001 0.927858 172.489966 -1.226759 -0.000005 -0.000004 -1.038990 -8.960869 1.108083 0.716360 0.000003 0.000001 -0.058384 70.496718 -6.264445 -3.713457 25.457464 7.355620 -0.000833 
54.138199 -13.990714 85.662399 -3.357668 2.342137 -3.972757 -1.007849 0.420831 -0.121999 1.988047 0.846335 -0.239920 3.633183 0.843408 -0.250035 11.146957 -8.598145 0.658878 10.051385 4.154751 0.915608 -21.778477 -25.063671 -26.708464 -118.410536 -133.729653 -66.454537 -0.000001 0.000023 -0.000004 108.972595 -4.589375 10.644266 0.000005 0.000003 -3.007808 -5.000228 -7.998694 0.000153 1.866159 55.126348 -2.732579 -34.712913 115.343044 31.108305 -0.000001 -0.000002 0.000003 4.786782 10.238232 0.112862 -0.000000 -0.000000 3.000000 -5.000229 7.998764 -0.000147 1.197444 -177.314593 -0.255926 -179.999991 0.000005 -1.118001 174.228891 -2.366960 -0.535153 -0.000002 -0.000001 0.041643 68.520608 6.913473 2.100913 25.456957 -7.355614 0.000001 0.931204 172.489966 -1.233897 -0.000005 -0.000004 -1.039040 -8.958940 1.118035 0.716234 0.000003 0.000001 -0.058312 70.494198 -6.265472 -3.710776 25.457467 7.355619 -0.000833 
54.149799 -13.989117 85.659599 -3.361192 2.342378 -3.977787 -1.006868 0.421498 -0.122200 1.990018 0.847841 -0.240624 3.635156 0.844901 -0.250751 11.130171 -8.591670 0.660085 10.050376 4.161961 0.916529 -21.765149 -25.131345 -26.686092 -118.374596 -133.720446 -66.399506 -0.000002 0.000023 -0.000006 108.627171 -4.574531 10.561616 0.000003 0.000003 -3.007799 -5.000232 -7.998693 0.000152 1.842936 55.121997 -2.705409 -34.734678 115.350024 31.145065 -0.000001 -0.000002 0.000003 4.825165 10.243946 0.109460 -0.000000 -0.000000 3.000000 -5.000231 7.998763 -0.000150 1.197871 -177.309593 -0.251839 -179.999991 0.000005 -1.118001 174.230654 -2.370936 -0.535482 -0.000002 -0.000001 0.041607 68.521762 6.913480 2.100940 25.456957 -7.355615 0.000002 0.935019 172.488983 -1.241291 -0.000005 -0.000005 -1.039100 -8.957029 1.128205 0.716116 0.000002 0.000001 -0.058242 70.491814 -6.266608 -3.707805 25.457467 7.355620 -0.000833 
54.147999 -13.974214 85.654800 -3.365147 2.342598 -3.983043 -1.005859 0.422026 -0.122469 1.992028 0.849011 -0.241442 3.637166 0.846057 -0.251578 11.115933 -8.579072 0.661693 10.047185 4.163440 0.918037 -21.750130 -25.198251 -26.661278 -118.343314 -133.710911 -66.338069 -0.000002 0.000022 -0.000006 108.282144 -4.560038 10.482138 0.000003 0.000002 -3.007799 -5.000233 -7.998694 0.000153 1.820436 55.119633 -2.678853 -34.760031 115.354546 31.185141 0.000000 -0.000001 0.000003 4.862760 10.249968 0.106080 0.000000 -0.000001 2.999999 -5.000231 7.998763 -0.000149 1.198635 -177.304594 -0.247319 -179.999991 0.000005 -1.118001 174.232197 -2.374926 -0.535820 -0.000002 -0.000001 0.041572 68.522821 6.913482 2.101077 25.456959 -7.355615 0.000001 0.939405 172.488996 -1.248885 -0.000005 -0.000004 -1.039160 -8.955184 1.138583 0.716013 0.000003 0.000001 -0.058174 70.489642 -6.267746 -3.704724 25.457466 7.355619 -0.000833 
